<mxfile host="Electron" agent="Mozilla/5.0 (X11; Linux x86_64) AppleWebKit/537.36 (KHTML, like Gecko) draw.io/24.7.17 Chrome/128.0.6613.186 Electron/32.2.2 Safari/537.36" version="24.7.17">
  <diagram name="Page-1" id="2I8XS_XFIBOry_1DJrcq">
    <mxGraphModel dx="518" dy="676" grid="1" gridSize="10" guides="1" tooltips="1" connect="1" arrows="1" fold="1" page="1" pageScale="1" pageWidth="850" pageHeight="1100" math="0" shadow="0">
      <root>
        <mxCell id="0" />
        <mxCell id="1" parent="0" />
        <mxCell id="bM7_wlpenXiqj_yqo1eN-4" style="edgeStyle=orthogonalEdgeStyle;rounded=0;orthogonalLoop=1;jettySize=auto;html=1;entryX=0.5;entryY=0;entryDx=0;entryDy=0;" edge="1" parent="1" source="bM7_wlpenXiqj_yqo1eN-2" target="bM7_wlpenXiqj_yqo1eN-3">
          <mxGeometry relative="1" as="geometry" />
        </mxCell>
        <mxCell id="bM7_wlpenXiqj_yqo1eN-2" value="start" style="ellipse;whiteSpace=wrap;html=1;" vertex="1" parent="1">
          <mxGeometry x="360" y="120" width="120" height="80" as="geometry" />
        </mxCell>
        <mxCell id="bM7_wlpenXiqj_yqo1eN-6" style="edgeStyle=orthogonalEdgeStyle;rounded=0;orthogonalLoop=1;jettySize=auto;html=1;entryX=0.5;entryY=0;entryDx=0;entryDy=0;" edge="1" parent="1" source="bM7_wlpenXiqj_yqo1eN-3" target="bM7_wlpenXiqj_yqo1eN-5">
          <mxGeometry relative="1" as="geometry" />
        </mxCell>
        <mxCell id="bM7_wlpenXiqj_yqo1eN-3" value="int n" style="rounded=1;whiteSpace=wrap;html=1;" vertex="1" parent="1">
          <mxGeometry x="360" y="240" width="120" height="60" as="geometry" />
        </mxCell>
        <mxCell id="bM7_wlpenXiqj_yqo1eN-9" style="edgeStyle=orthogonalEdgeStyle;rounded=0;orthogonalLoop=1;jettySize=auto;html=1;" edge="1" parent="1" source="bM7_wlpenXiqj_yqo1eN-5" target="bM7_wlpenXiqj_yqo1eN-8">
          <mxGeometry relative="1" as="geometry" />
        </mxCell>
        <mxCell id="bM7_wlpenXiqj_yqo1eN-5" value="vector&amp;lt;int&amp;gt; a" style="rounded=1;whiteSpace=wrap;html=1;" vertex="1" parent="1">
          <mxGeometry x="360" y="340" width="120" height="60" as="geometry" />
        </mxCell>
        <mxCell id="bM7_wlpenXiqj_yqo1eN-11" style="edgeStyle=orthogonalEdgeStyle;rounded=0;orthogonalLoop=1;jettySize=auto;html=1;entryX=0.5;entryY=0;entryDx=0;entryDy=0;" edge="1" parent="1" source="bM7_wlpenXiqj_yqo1eN-8" target="bM7_wlpenXiqj_yqo1eN-10">
          <mxGeometry relative="1" as="geometry" />
        </mxCell>
        <mxCell id="bM7_wlpenXiqj_yqo1eN-8" value="enter n" style="shape=parallelogram;perimeter=parallelogramPerimeter;whiteSpace=wrap;html=1;fixedSize=1;" vertex="1" parent="1">
          <mxGeometry x="360" y="440" width="120" height="60" as="geometry" />
        </mxCell>
        <mxCell id="bM7_wlpenXiqj_yqo1eN-30" style="edgeStyle=orthogonalEdgeStyle;rounded=0;orthogonalLoop=1;jettySize=auto;html=1;entryX=0.5;entryY=0;entryDx=0;entryDy=0;" edge="1" parent="1" source="bM7_wlpenXiqj_yqo1eN-10" target="bM7_wlpenXiqj_yqo1eN-12">
          <mxGeometry relative="1" as="geometry" />
        </mxCell>
        <mxCell id="bM7_wlpenXiqj_yqo1eN-10" value="enter a" style="shape=parallelogram;perimeter=parallelogramPerimeter;whiteSpace=wrap;html=1;fixedSize=1;" vertex="1" parent="1">
          <mxGeometry x="360" y="540" width="120" height="60" as="geometry" />
        </mxCell>
        <mxCell id="bM7_wlpenXiqj_yqo1eN-12" value="print result of longIncSub" style="shape=parallelogram;perimeter=parallelogramPerimeter;whiteSpace=wrap;html=1;fixedSize=1;" vertex="1" parent="1">
          <mxGeometry x="330" y="640" width="180" height="60" as="geometry" />
        </mxCell>
        <mxCell id="bM7_wlpenXiqj_yqo1eN-15" style="edgeStyle=orthogonalEdgeStyle;rounded=0;orthogonalLoop=1;jettySize=auto;html=1;" edge="1" parent="1" source="bM7_wlpenXiqj_yqo1eN-13" target="bM7_wlpenXiqj_yqo1eN-14">
          <mxGeometry relative="1" as="geometry" />
        </mxCell>
        <mxCell id="bM7_wlpenXiqj_yqo1eN-13" value="longIncSub(a, n)" style="ellipse;whiteSpace=wrap;html=1;" vertex="1" parent="1">
          <mxGeometry x="690" y="230" width="120" height="80" as="geometry" />
        </mxCell>
        <mxCell id="bM7_wlpenXiqj_yqo1eN-17" style="edgeStyle=orthogonalEdgeStyle;rounded=0;orthogonalLoop=1;jettySize=auto;html=1;entryX=0.5;entryY=0;entryDx=0;entryDy=0;" edge="1" parent="1" source="bM7_wlpenXiqj_yqo1eN-14" target="bM7_wlpenXiqj_yqo1eN-16">
          <mxGeometry relative="1" as="geometry" />
        </mxCell>
        <mxCell id="bM7_wlpenXiqj_yqo1eN-14" value="vector&amp;lt;int&amp;gt; dummy(n,1)" style="rounded=1;whiteSpace=wrap;html=1;" vertex="1" parent="1">
          <mxGeometry x="690" y="340" width="120" height="60" as="geometry" />
        </mxCell>
        <mxCell id="bM7_wlpenXiqj_yqo1eN-19" style="edgeStyle=orthogonalEdgeStyle;rounded=0;orthogonalLoop=1;jettySize=auto;html=1;entryX=0.5;entryY=0;entryDx=0;entryDy=0;" edge="1" parent="1" source="bM7_wlpenXiqj_yqo1eN-16" target="bM7_wlpenXiqj_yqo1eN-18">
          <mxGeometry relative="1" as="geometry" />
        </mxCell>
        <mxCell id="bM7_wlpenXiqj_yqo1eN-29" style="edgeStyle=orthogonalEdgeStyle;rounded=0;orthogonalLoop=1;jettySize=auto;html=1;entryX=1;entryY=0.5;entryDx=0;entryDy=0;" edge="1" parent="1" source="bM7_wlpenXiqj_yqo1eN-16" target="bM7_wlpenXiqj_yqo1eN-28">
          <mxGeometry relative="1" as="geometry">
            <Array as="points">
              <mxPoint x="980" y="470" />
              <mxPoint x="980" y="900" />
            </Array>
          </mxGeometry>
        </mxCell>
        <mxCell id="bM7_wlpenXiqj_yqo1eN-16" value="i = 1; i &amp;lt; n; i++" style="shape=hexagon;perimeter=hexagonPerimeter2;whiteSpace=wrap;html=1;fixedSize=1;" vertex="1" parent="1">
          <mxGeometry x="690" y="430" width="120" height="80" as="geometry" />
        </mxCell>
        <mxCell id="bM7_wlpenXiqj_yqo1eN-21" style="edgeStyle=orthogonalEdgeStyle;rounded=0;orthogonalLoop=1;jettySize=auto;html=1;entryX=0.5;entryY=0;entryDx=0;entryDy=0;" edge="1" parent="1" source="bM7_wlpenXiqj_yqo1eN-18" target="bM7_wlpenXiqj_yqo1eN-20">
          <mxGeometry relative="1" as="geometry" />
        </mxCell>
        <mxCell id="bM7_wlpenXiqj_yqo1eN-27" style="edgeStyle=orthogonalEdgeStyle;rounded=0;orthogonalLoop=1;jettySize=auto;html=1;exitX=0;exitY=0.5;exitDx=0;exitDy=0;entryX=0;entryY=0.5;entryDx=0;entryDy=0;" edge="1" parent="1" source="bM7_wlpenXiqj_yqo1eN-18" target="bM7_wlpenXiqj_yqo1eN-16">
          <mxGeometry relative="1" as="geometry" />
        </mxCell>
        <mxCell id="bM7_wlpenXiqj_yqo1eN-18" value="n = 0; n &amp;lt; i; n++" style="shape=hexagon;perimeter=hexagonPerimeter2;whiteSpace=wrap;html=1;fixedSize=1;" vertex="1" parent="1">
          <mxGeometry x="690" y="540" width="120" height="80" as="geometry" />
        </mxCell>
        <mxCell id="bM7_wlpenXiqj_yqo1eN-23" style="edgeStyle=orthogonalEdgeStyle;rounded=0;orthogonalLoop=1;jettySize=auto;html=1;entryX=0.5;entryY=0;entryDx=0;entryDy=0;" edge="1" parent="1" source="bM7_wlpenXiqj_yqo1eN-20" target="bM7_wlpenXiqj_yqo1eN-22">
          <mxGeometry relative="1" as="geometry" />
        </mxCell>
        <mxCell id="bM7_wlpenXiqj_yqo1eN-24" value="true" style="edgeLabel;html=1;align=center;verticalAlign=middle;resizable=0;points=[];" vertex="1" connectable="0" parent="bM7_wlpenXiqj_yqo1eN-23">
          <mxGeometry x="0.1733" y="1" relative="1" as="geometry">
            <mxPoint as="offset" />
          </mxGeometry>
        </mxCell>
        <mxCell id="bM7_wlpenXiqj_yqo1eN-20" value="a[i] &amp;gt; a[n] and dummy[i] &amp;lt; dummy[n] + 1" style="rhombus;whiteSpace=wrap;html=1;" vertex="1" parent="1">
          <mxGeometry x="615" y="650" width="270" height="80" as="geometry" />
        </mxCell>
        <mxCell id="bM7_wlpenXiqj_yqo1eN-26" style="edgeStyle=orthogonalEdgeStyle;rounded=0;orthogonalLoop=1;jettySize=auto;html=1;exitX=0.5;exitY=1;exitDx=0;exitDy=0;entryX=1;entryY=0.5;entryDx=0;entryDy=0;" edge="1" parent="1" source="bM7_wlpenXiqj_yqo1eN-22" target="bM7_wlpenXiqj_yqo1eN-18">
          <mxGeometry relative="1" as="geometry">
            <Array as="points">
              <mxPoint x="750" y="840" />
              <mxPoint x="930" y="840" />
              <mxPoint x="930" y="580" />
            </Array>
          </mxGeometry>
        </mxCell>
        <mxCell id="bM7_wlpenXiqj_yqo1eN-22" value="dummy[i] = dummy[n] + 1" style="rounded=1;whiteSpace=wrap;html=1;" vertex="1" parent="1">
          <mxGeometry x="690" y="760" width="120" height="60" as="geometry" />
        </mxCell>
        <mxCell id="bM7_wlpenXiqj_yqo1eN-28" value="return max element of dummy" style="ellipse;whiteSpace=wrap;html=1;" vertex="1" parent="1">
          <mxGeometry x="690" y="860" width="120" height="80" as="geometry" />
        </mxCell>
      </root>
    </mxGraphModel>
  </diagram>
</mxfile>
